<svg xmlns="http://www.w3.org/2000/svg" viewBox="0 0 1440 1024" fill="none" stroke-linecap="round" stroke-linejoin="round">
  <!-- rayo naranja (arriba derecha) -->
  <g transform="translate(1180,70)"><path d="M40,0 L-10,150 L28,150 L-12,300 L95,110 L48,110 L92,0 Z" fill="#e8501f"/></g>
  <!-- rayo amarillo (abajo izquierda) -->
  <g transform="translate(150,760) rotate(18) scale(.8)"><path d="M40,0 L-10,150 L28,150 L-12,300 L95,110 L48,110 L92,0 Z" fill="#ffcc33"/></g>
  <!-- estrella 5 puntas amarilla -->
  <g transform="translate(330,200) scale(1.1)"><path d="M0,-55 L13,-18 L52,-18 L21,7 L33,44 L0,22 L-33,44 L-21,7 L-52,-18 L-13,-18 Z" fill="#ffcc33"/></g>
  <!-- estrella 5 puntas naranja -->
  <g transform="translate(1180,800) scale(1.3)"><path d="M0,-55 L13,-18 L52,-18 L21,7 L33,44 L0,22 L-33,44 L-21,7 L-52,-18 L-13,-18 Z" fill="#e8501f"/></g>
  <!-- sparkles crema -->
  <g fill="#f3ede0">
    <g transform="translate(760,120)"><path d="M0,-40 C7,-13 13,-7 40,0 C13,7 7,13 0,40 C-7,13 -13,7 -40,0 C-13,-7 -7,-13 0,-40 Z"/></g>
    <g transform="translate(1320,640) scale(.8)"><path d="M0,-40 C7,-13 13,-7 40,0 C13,7 7,13 0,40 C-7,13 -13,7 -40,0 C-13,-7 -7,-13 0,-40 Z"/></g>
    <g transform="translate(520,880) scale(.7)"><path d="M0,-40 C7,-13 13,-7 40,0 C13,7 7,13 0,40 C-7,13 -13,7 -40,0 C-13,-7 -7,-13 0,-40 Z"/></g>
  </g>
  <!-- pua de guitarra naranja -->
  <g transform="translate(230,560) rotate(-12)"><path d="M0,-48 C28,-48 44,-30 42,-4 C39,22 20,46 0,56 C-20,46 -39,22 -42,-4 C-44,-30 -28,-48 0,-48 Z" fill="none" stroke="#e8501f" stroke-width="7"/></g>
  <!-- corcheas crema -->
  <g transform="translate(1040,420)" stroke="#f3ede0" stroke-width="7" fill="#f3ede0">
    <ellipse cx="0" cy="44" rx="17" ry="12" transform="rotate(-20 0 44)"/><ellipse cx="60" cy="34" rx="17" ry="12" transform="rotate(-20 60 34)"/>
    <path d="M16,40 L16,-44 L76,-54 L76,30" fill="none"/><path d="M16,-44 L76,-54" stroke-width="11"/>
  </g>
  <!-- POW burst naranja (2 cuadrados girados) -->
  <g transform="translate(920,180)" stroke="#e8501f" stroke-width="7" fill="none">
    <rect x="-46" y="-46" width="92" height="92"/><rect x="-46" y="-46" width="92" height="92" transform="rotate(45)"/>
  </g>
  <!-- llama naranja contorno -->
  <g transform="translate(1300,430)" stroke="#e8501f" stroke-width="7" fill="none"><path d="M0,60 C-42,32 -34,-10 -8,-30 C-2,-2 14,-10 8,-40 C40,-18 46,30 14,56 C24,40 18,18 2,18 C-8,30 8,46 0,60 Z"/></g>
  <!-- mano de rock (horns) crema -->
  <g transform="translate(560,720) scale(1.5)" fill="none" stroke="#f3ede0" stroke-width="6">
    <path d="M6,86 Q-6,86 -6,64 L-6,12 Q-6,0 6,0 L9,0 L9,-66 Q9,-80 22,-80 Q35,-80 35,-66 L35,2 L60,2 L60,-60 Q60,-74 73,-74 Q86,-74 86,-60 L86,16 Q100,18 100,38 L100,66 Q100,86 82,86 Z"/>
    <path d="M86,16 Q92,4 104,8" />
  </g>
</svg>
